<svg width="489" height="98" viewBox="0 0 489 98" fill="none" xmlns="http://www.w3.org/2000/svg">
<path fill-rule="evenodd" clip-rule="evenodd" d="M94.8499 93.5276C99.8856 96.5092 105.705 98 112.31 98C118.666 98 124.403 96.751 129.522 94.2529C132.83 92.6379 135.604 90.72 137.843 88.499L126.643 77.2984C125.29 78.6512 123.608 79.9603 121.72 81.077C119.079 82.6887 115.942 83.4945 112.31 83.4945C108.099 83.4945 104.591 82.3261 101.784 79.9892C99.0601 77.6521 97.2439 74.6301 96.3358 70.9232L144.505 70.9232C144.604 70.2904 144.689 69.6722 144.759 69.0687C144.804 68.6732 144.843 68.284 144.876 67.9011C144.959 66.9341 145 66.0074 145 65.121C145 59.077 143.597 53.5567 140.79 48.5605C138.066 43.4835 134.227 39.4542 129.274 36.4726C124.403 33.4909 118.749 32 112.31 32C105.871 32 100.133 33.4909 95.0976 36.4726C90.1445 39.4542 86.2233 43.4836 83.334 48.5605C80.4446 53.5568 79 59.077 79 65.121C79 71.1649 80.3621 76.685 83.0863 81.6814C85.8931 86.5972 89.8143 90.5459 94.8499 93.5276ZM112.062 46.022C108.099 46.0219 104.715 47.1905 101.908 49.5276C99.1013 51.8645 97.2439 54.9268 96.3358 58.7143L128.16 58.7143C127.251 55.2491 125.353 52.2675 122.463 49.7694C119.657 47.2711 116.19 46.022 112.062 46.022Z" fill="#141413"/>
<path d="M244.754 46.0454V85H250V98H244.754H229H227.61V46H213V31.5L227.61 31.4766L227.66 16.3911L244.804 0L244.754 31.4766H258.723V46.0454H244.754Z" fill="#141413"/>
<path d="M310 65C310 55.0589 301.941 47 292 47C282.059 47 274 55.0589 274 65C274 74.9411 282.059 83 292 83C301.941 83 310 74.9411 310 65ZM325 65C325 83.2254 310.225 98 292 98C273.775 98 259 83.2254 259 65C259 46.7746 273.775 32 292 32C310.225 32 325 46.7746 325 65Z" fill="#141413"/>
<path d="M351 85V64.5C351 59.0103 352.755 54.4014 356.142 51.2764C359.528 48.1515 363.677 46.5891 368.587 46.5891H371V30.5C365.243 30.1623 360.671 31.2602 357.285 33.7939C353.898 36.2431 351.654 39.8325 350.554 44.5622V32H335H334H329V45H334V85H329V98H334H335H350H351H356V85H351Z" fill="#141413"/>
<path d="M152 5.00012L147 5V18H152V85H147V98H152L163.981 98.0001H169L174 98V85H169V72L190.617 98H194H202.059H213V97.4304V85H202.088L182.014 62.1345L213 31.5H200.809H188.617L169 53V18H174V5L169 5.00012H163.981H152Z" fill="#141413"/>
<path d="M0 5H18.6H21.8032H40.92V23.6C33.48 23.6 29.5941 26.39 29.5941 26.39L43.3372 64.1214C44.7728 68.0186 45.8943 71.9157 46.7019 75.8128C47.1505 73.8643 47.644 71.9157 48.1823 69.9672C48.7207 67.93 49.3487 65.9814 50.0666 64.1214L63.8096 26.39C63.8096 26.39 59.985 23.6 52.545 23.6V5H71.6006H73.005H93L55.7192 98H37.5499L0 5Z" fill="#141413"/>
<path d="M393 22L393 85H388V98H393H413H418V85H413L413 5H394L388 20V22H393Z" fill="#2E926C"/>
<path fill-rule="evenodd" clip-rule="evenodd" d="M471 51.5C471 47.2318 470.814 42.1769 470.522 36.9209L470.516 36.8458C470.514 36.8178 470.511 36.7855 470.508 36.7484C470.506 36.724 470.504 36.6976 470.501 36.6689C470.403 35.5712 470.15 34.4851 469.765 33.4336L451.295 79.6106C452.165 79.8307 453.051 79.9615 453.938 79.9912C454.148 79.9982 454.234 80 455 80C455.766 80 455.852 79.9982 456.062 79.9912C463.035 79.7579 469.882 73.281 470.501 66.3311C470.512 66.2081 470.519 66.1268 470.523 66.0732C470.814 60.8195 471 55.7665 471 51.5ZM440.235 69.5664C439.85 68.5149 439.597 67.4288 439.499 66.3311L439.477 66.0732C439.186 60.8195 439 55.7665 439 51.5C439 47.2318 439.185 42.1768 439.477 36.9209L439.485 36.8273L439.499 36.6689C440.118 29.719 446.965 23.2419 453.938 23.0088C454.148 23.0018 454.234 23 455 23C455.766 23 455.852 23.0018 456.062 23.0088C456.949 23.0385 457.835 23.1692 458.705 23.3893L440.235 69.5664ZM455.52 97.9999L455 98C454.259 98 453.888 97.9999 453.337 97.9814C437.527 97.4528 423.443 84.3529 421.646 68.6758L421.57 67.9277C421.558 67.7863 421.548 67.675 421.54 67.5848C421.533 67.4999 421.528 67.4335 421.523 67.3779L421.506 67.1035C421.204 61.666 421 56.2368 421 51.5C421 47.3553 421.156 42.681 421.397 37.9346L421.506 35.8965L421.513 35.7764L421.518 35.7018L421.523 35.6221L421.57 35.0723C422.974 19.3158 436.833 5.97766 452.586 5.05273L453.337 5.01855C453.888 5.00012 454.259 5 455 5C455.741 5 456.112 5.00012 456.663 5.01855C472.724 5.55566 487.004 19.0659 488.43 35.0723C488.479 35.621 488.484 35.7133 488.494 35.8965C488.796 41.334 489 46.7632 489 51.5C489 56.2368 488.796 61.666 488.494 67.1035L488.477 67.3779C488.472 67.4337 488.467 67.5005 488.46 67.5862C488.452 67.6761 488.442 67.787 488.43 67.9277L488.354 68.6758C486.557 84.3529 472.473 97.4528 456.663 97.9814L455.902 97.998C455.783 97.9991 455.658 97.9996 455.52 97.9999Z" fill="#2E926C"/>
</svg>
